<?xml version="1.0" standalone="no"?>
<!DOCTYPE svg PUBLIC "-//W3C//DTD SVG 20010904//EN"
 "http://www.w3.org/TR/2001/REC-SVG-20010904/DTD/svg10.dtd">
<svg version="1.0" xmlns="http://www.w3.org/2000/svg"
 width="32.000000pt" height="20.000000pt" viewBox="0 0 32.000000 20.000000"
 preserveAspectRatio="xMidYMid meet">
<metadata>
Created by potrace 1.16, written by Peter Selinger 2001-2019
</metadata>
<g transform="translate(0.000000,20.000000) scale(0.100000,-0.100000)"
fill="#000000" stroke="none">
<path d="M140 190 c0 -21 -2 -25 -16 -33 -20 -11 -17 -24 6 -30 13 -3 18 -10
14 -21 -8 -22 -15 -20 -48 10 -27 26 -96 43 -96 24 0 -5 9 -24 19 -42 10 -18
22 -48 26 -66 l7 -32 108 0 108 0 7 32 c4 18 16 48 26 66 10 18 19 37 19 41 0
18 -59 4 -93 -22 -43 -32 -47 -33 -47 -7 0 11 7 20 15 20 19 0 19 17 1 27 -14
8 -16 12 -16 33 0 6 -9 10 -20 10 -11 0 -20 -4 -20 -10z"/>
</g>
</svg>
